<svg xmlns="http://www.w3.org/2000/svg" viewBox="0 0 3098.27 2782.99"><defs><style>.cls-1{fill:#1a1a1a;}.cls-2{fill:#1c1c1c;}.cls-3{fill:#0c0c0c;}.cls-4{fill:#080808;}.cls-5{fill:#fbfbfb;}.cls-6{fill:#f8f8f8;}.cls-7{fill:#070707;}.cls-8{fill:#1d1d1d;}.cls-9{fill:#0e0e0e;}.cls-10{fill:#141414;}.cls-11{fill:#fafafa;}.cls-12{fill:#0f0f0f;}.cls-13{fill:#1e1e1e;}.cls-14{fill:#0d0d0d;}.cls-15{fill:#232323;}.cls-16{fill:#161616;}.cls-17{fill:#f9f9f9;}.cls-18{fill:#1f1f1f;}.cls-19{fill:#101010;}.cls-20{fill:#454545;}.cls-21{fill:#ccc;}.cls-22{fill:#ddd;}.cls-23{fill:#f0f0f0;}.cls-24{fill:#e5e5e5;}.cls-25{fill:#fcfcfc;}.cls-26{fill:#f9f8f9;}.cls-27{fill:#cecece;}.cls-28{fill:#fefefe;}.cls-29{fill:red;stroke-width:5px;}.cls-29,.cls-32,.cls-33,.cls-34{stroke:#000;stroke-miterlimit:10;}.cls-30{fill:#fff;}.cls-31{fill:#2c2c2c;}.cls-32,.cls-33,.cls-34{fill:none;}.cls-32{stroke-width:20px;}.cls-33{stroke-width:22px;}.cls-34{stroke-width:40px;}.cls-35{fill:#e6e6e6;}</style></defs><g id="圖層_2" data-name="圖層 2"><path class="cls-1" d="M2891.54,2443q.26-1069.11-.05-2137.88c0-13.36,1.24-26.9-3.35-39.86-7.52-54.92.37-110.29-4.49-165.18a55.23,55.23,0,0,0-8.43-5.09c-35.75-11.76-72.4-5.45-108.6-5.23-20.56.13-22.3,17.37-25,33.12-4.15,23.72-10.92,45.93-40.73,48.5-8-.93-15.42-3.64-22.94-6.24-11-2.92-22.28-2.25-33.44-2.26q-488.57-.12-977.13,0c-10.06,0-20.16-.32-30.09,1.56-5.72,1.87-11.09,4.75-17,6.26-10.26,2.2-19-1-26.87-7.52-21.57-23-25.51-50.86-22.27-80.72,10.36-10.63,1.44-32.78,22.11-37.35,10.37,11.09,23.86,20.58,30.55,33.57,22.42,43.56,56.56,51.78,103.73,51.42,308.77-2.39,617.57-1.56,926.36-.66,26.89.08,41-3.86,41.41-34.83.31-24.33,6.15-49.89,38-54.66,37.14,6.14,74.54,1.5,111.81,2.48,16.51.44,32.93.85,49.27,3.35,19.89,6.3,26.93,25.16,37.77,39.83,30.78,41.67,60.53,84.1,90.68,126.23,1.65,6.86,2.44,14.35,11.65,15.53l8.23,11.93c4.89,794.6.85,1589.21,2.13,2383.81,0,7.84-.46,15.66-1.12,23.45a24,24,0,0,0,4.39,11.9c-10.94,41.07-37.33,63.75-79.92,67.15a37.66,37.66,0,0,0-17.84-6.27c-228.16-.94-456.3-.32-684.43-.36q-952.81-.17-1905.62,0c-16.77,0-33.56-.5-50.27.55-13.42,4.9-28.12-.07-41.52,5.25-22.84-.66-41-12.4-53.68-29.24C167.39,2632.74,121.24,2569,75.1,2505.18c-4.24-5.86-5-14.26-7.31-21.48a32.85,32.85,0,0,0,3.4-18.52c-.93-485.18-.22-970.33-.4-1455.48q-.15-430.94.15-861.88c0-17.61-3.45-35.93,6.31-52.5q5.22-5.62,11.67-1.46c9,11.62,7.46,25.45,7.46,38.71q.21,1156.4,0,2312.79a114.39,114.39,0,0,1-.83,13.29c-2.84,18.95,14.29-5.48,14.69,6.61,22.11,30.84,53.26,35.16,88.77,35.12q824-1,1648-.16c97.3.11,194.62-2.69,291.9.79a327.8,327.8,0,0,1,45.2.07c195.62-2.29,391.26-.4,586.89-1,21.24-.07,42.5.47,63.5-2.42C2834.55,2497.63,2889.56,2495.81,2891.54,2443Z"/><path class="cls-2" d="M87,92.92h-6.7c-3.12-2.59-4.89-6.38-8-8.84a13.22,13.22,0,0,1-5.39-4.59c5.2-25.68,21.38-38.44,47.07-40,10.53,5.71,21.94,3,32.92,3q699.08.23,1398.15,0c11,0,22.39,2.68,32.91-3.05q9.55-2.28,15.34,5.64c-4.88,12.54-3.27,28-16.41,36.84-18.26,12.18-39,8.21-58.79,8.22q-668.07.36-1336.15.2c-21.24,0-42.55-.85-63.5,3.45a61.55,61.55,0,0,1-16.49,2C96.84,95.64,92,93.83,87,92.92Z"/><path class="cls-3" d="M3048.13,2658.46l-2.89,0-2.88,0c-6.66-11.51-3.35-24.1-3.35-36.13q-.27-1165.73.41-2331.46c0-12-11.26-29.49,9.7-36.91,7.83,11.12,4.59,23.84,4.59,35.84q.24,1164.66.16,2329.3C3053.87,2632.52,3054.85,2646.05,3048.13,2658.46Z"/><path class="cls-4" d="M66.87,79.49l6.59.11c6.39,11.58,3.2,24.15,3.2,36.2q.27,1162.58,0,2325.16c0,12.07,3.07,24.62-3.13,36.24q-2.87,3.26-5.75,6.5c-6.79-13.66-5.2-28.36-5.2-42.83q0-1161,.13-2322C62.72,105.73,59.45,92,66.87,79.49Z"/><path class="cls-5" d="M50.61,119.07V2465.65H43.9V119.6Z"/><ellipse class="cls-6" cx="1624.28" cy="2743.63" rx="1897.54" ry="4.42"/><path class="cls-7" d="M2961.42,2718.85l6.79,6.76c-12.24.59-24.47,1.71-36.71,1.71q-1309.86.13-2619.71,0c-14.42,0-28.84-1.65-43.26-2.53,9.77-9.79,22.26-4.23,33.46-5.91,11.67-6,24.21-3,36.29-3q1293.44-.24,2586.85,0C2937.22,2715.85,2949.75,2712.91,2961.42,2718.85Z"/><path class="cls-8" d="M3049.12,254c-10.57,8.6-6.87,20.61-6.87,31.32q-.12,1186.59.11,2373.18c-12.57-12-6.69-27.54-6.7-41.35q-.47-1156.17-.44-2312.35c0-16.59,4.08-33.94-3.36-49.7-6.26-13.26,10-8.73,10.87-15.77C3048.24,242.72,3049.89,247.82,3049.12,254Z"/><path class="cls-9" d="M1577.92,39.47c-10.07,10.62-23.15,6.24-34.9,6.25q-697.08.33-1394.17,0c-11.75,0-24.83,4.43-34.91-6.22,7.76-.61,15.52-1.76,23.27-1.76q710.42-.07,1420.82.1C1564.66,37.82,1571.29,38.9,1577.92,39.47Z"/><path class="cls-10" d="M2894.4,45.78c-53.7-1.72-107.76,6.48-161.08-5.83C2787.1,39.5,2841.25,28.85,2894.4,45.78Z"/><path class="cls-8" d="M3034.5,227.37c-6.68,2.15-14.19,11.29-19.93,3.4-4.91-6.75,7.47-11.5,8.28-18.93Q3028.67,219.61,3034.5,227.37Z"/><path class="cls-11" d="M1641,2617c-106.11-1.5-212.22-3.21-318.34-4.43-82.76-1-165.52-1.28-248.28-1.89-44.46-5.81-89.11-2.06-133.66-2.41-90.5-.71-181-.17-271.52-.23a21.4,21.4,0,0,1-12.07-2.76L658,2599q182.69-2,365.38-4.07c11.07-.13,22.13-1.52,33.19-2.33,13.26-8.87,28.17-4.47,42.15-4.23,72.41,1.25,144.91-4.13,217.24,2.61l174.74-.48c13.07-4.72,26.61-2.31,39.91-2.31q662.68-.22,1325.38-.28c13.23,0,26.84,2.94,39.73-2.77,40-11.56,53.11-30.46,51.78-74.5-3.52-6.2-2.77-13-2.67-19.69,2.56-173.39-6.6-346.76-2.69-520.08,2.22-98.42,1.34-196.78,2.74-295.16.11-7.54-2.44-15.86,4.4-22.16,1.43-103.92,3.55-207.83,4.13-311.75.88-156.63.69-313.26.95-469.89-12-55.83-4.19-112.36-5.94-168.53,5.12-23,4.54-46.76,9-69.88q3.47-5.92,9.82-3.26,1.91,167.54,3.9,335.07c.19,14.41,1.72,28.81,2.63,43.21,8.17,61.89,5.76,123.85,1.2,185.82q.15,244.82.35,489.62.79,410.94,1.95,821.87c.16,74.93-35.84,111.38-110.4,111.68q-197.85.78-395.71,1.13c-8.4,4.52-17.53,2.73-26.35,2.73q-387.49.13-775-.1C1660.18,2621.29,1649.57,2625,1641,2617Z"/><path class="cls-12" d="M154.15,2524.18c4.77-14.42,16.52-5.89,24.08-5.89q1315.4-.78,2630.79-.35c10.73,0,22.65-3.71,31.6,6.25-11.63,6.15-24.18,3.1-36.26,3.11q-1307,.24-2614,0C178.33,2527.29,165.78,2530.35,154.15,2524.18Z"/><path class="cls-8" d="M154.15,2524.18H2840.62c-9.91,11-23.06,6.53-34.8,6.53q-1308.44.3-2616.88,0C177.2,2530.72,164.05,2535.19,154.15,2524.18Z"/><path class="cls-8" d="M2961.42,2718.85H302c10-10.9,23.1-6.42,34.84-6.43q1294.88-.3,2589.75,0C2938.33,2712.44,2951.46,2708,2961.42,2718.85Z"/><path class="cls-13" d="M73.54,2477.2q0-1198.8-.07-2397.6c13.6-1.37,3.72,9.31,6.82,13.32q0,1171.38-.27,2342.76C80,2449.54,85.68,2465,73.54,2477.2Z"/><path class="cls-14" d="M101.68,95.12c.53,10,1.51,20,1.51,30.05q.12,1153.22,0,2306.43c0,10-1.06,20-1.62,30-3.39,2.24,2.93,13.31-7.95,8.74-6-11.66-3-24.2-3-36.28q-.24-1155.81,0-2311.62c0-12.08-3-24.62,3-36.27Z"/><path class="cls-13" d="M93.66,86.2q0,1192.08,0,2384.18c-12-12.3-6.35-27.7-6.35-41.56q-.47-1168-.28-2335.9Z"/><path class="cls-7" d="M2699.49,166.37c-13.75,6.85-28.53,4.08-42.86,4.08q-495.89.23-991.76.17c-12.19,0-24.38,1.27-36.58,2-4-.57-7.92-1.4-10-5.47l6.92-7.21c9.41-5.31,19.69-3,29.57-3q500.87-.19,1001.74,0c9.87,0,20.16-2.38,29.55,3C2691.43,160.16,2696.46,161.16,2699.49,166.37Z"/><path class="cls-10" d="M2949.31,1653.58c.22,74.73.66,149.45.6,224.18q-.24,301.46-.87,602.91c0,10-1,20-1.51,30-10.23-10.21-5.93-23.19-6-35-.36-95.8-.23-191.61-.25-287.41a2075,2075,0,0,1,0-255l.11-826.19q3.15-4.54,6.29,0,.06,251.49.17,503C2947.87,1624.57,2948.81,1639.08,2949.31,1653.58Z"/><path class="cls-15" d="M2895.75,2585.17c-8.11,5.32-17.26,3.73-26.1,3.75q-681.12,1.48-1362.26,2.83c-5.55,0-11.1-.8-16.66-1.22,8.19-8.48,18.8-5.77,28.57-5.78q681.53-.28,1363.05-.32C2886.82,2584.43,2891.28,2584.91,2895.75,2585.17Z"/><path class="cls-16" d="M1641,2617c104.85-.11,209.71-.52,314.56-.26q257.82.63,515.63,2c-9.06,9.74-20.94,6.12-31.7,6.12q-639.43.26-1278.87,0c-8.49,0-17.68,3-31.53-7.81Z"/><path class="cls-17" d="M1618.24,167.11l10,5.47c-3.83,1.18-10,5.7-9.1,5.86,9.81,1.66,19.93,1.75,30,1.75q509.87.08,1019.72,0h40.21c-12,10.3-22,6.5-30.85,6.51q-519.91.36-1039.84-.06c-17.76,0-43.07,8.15-40.66-25.58Z"/><path class="cls-18" d="M2686,159.94l-1060.86,0c10-10.82,23.08-6.34,34.8-6.34q495.65-.36,991.28,0C2663,153.56,2676.06,149.08,2686,159.94Z"/><path class="cls-3" d="M1658.58,139.78c8-8.76,18.69-5.85,28.4-5.85q490.84-.19,981.71-.07c5.49,0,11,.38,16.46.8.71.05,1.76,1.33,1.86,2.15.13,1-.57,2.11-.92,3.17-9.35,5.54-19.66,3.09-29.52,3.1q-484.28.19-968.56,0C1678.18,143.06,1667.84,145.68,1658.58,139.78Z"/><path class="cls-18" d="M1658.58,139.78l1027.52.2c-9.92,11-23,6.47-34.77,6.47q-479.05.38-958.11,0C1681.52,146.45,1668.35,151,1658.58,139.78Z"/><path class="cls-10" d="M1316,2591l-259.39,1.62H672.38c13.82-10.84,23-7.83,31.47-7.83q290.25-.3,580.51,0C1295.1,2584.79,1307,2581.14,1316,2591Z"/><path class="cls-10" d="M2954.85,254.1q-.48,202.62-.88,405.24c0,13.33,1.3,26.66,2,40q-.79,86.29-1.58,172.61c-7.54-5-6.06-12.84-6.34-20.13a1121,1121,0,0,1-.11-187.84q0-6.88,0-13.76a521,521,0,0,1,0-127.32c0-78.05-.12-156.09.3-234.13C2948.34,277.05,2943.8,263.94,2954.85,254.1Z"/><path class="cls-19" d="M2975,1194.37c-2.72-61.92-3.86-123.86-1.2-185.82V649.7c10.67,16.81,7.7,27.11,7.72,36.84q.32,236.51-.06,473C2981.41,1171.3,2985.93,1184.44,2975,1194.37Z"/><path class="cls-20" d="M659.5,2610.2q-173.79.39-347.58.72c-11.5,0-22-3-29.61-12.55,13.88-7.15,28.71-2,43-3.37,14.52,4.75,29,3.11,43.53-.16,33,.17,66-.5,99,.36,23.74,5.65,47.85,1.72,71.77,2.89,39.47-.15,78.79,1.71,117.91,7.11l-.48.35Q660.9,2606.55,659.5,2610.2Z"/><ellipse class="cls-18" cx="648.47" cy="2621.84" rx="335.32" ry="1.79"/><path class="cls-21" d="M659.5,2610.2a12.54,12.54,0,0,1-2.38-4.65q202.62,0,405.24.14c4,0,8,3.24,12,5q-185.68-.36-371.37-.72C688.49,2609.92,674,2610.11,659.5,2610.2Z"/><path class="cls-10" d="M329.59,2598.89l-47.28-.52c-1.09-.22-2.45-.12-3.22-.74a29.22,29.22,0,0,1-3.47-4c4-.75,8-2.16,12-2.17q145.59-.17,291.18-.07c6.77,0,13.42.27,18.58,5.58-19.38,9.47-40,1.92-59.88,4.37-22.21-1.44-44.66,3.11-66.7-2.67l-109.08.1C351,2602.75,340.32,2602.55,329.59,2598.89Z"/><path class="cls-13" d="M2941.28,1933.26q0,127.52,0,255c-6-4.55-6.63-11.07-6.63-17.86q0-109.66,0-219.33C2934.67,1944.33,2935.29,1937.81,2941.28,1933.26Z"/><path class="cls-18" d="M2947.94,664q.06,93.91.11,187.84c-13.33-16.69-7-36.36-6.07-54.15C2944.19,753.11,2933,707.89,2947.94,664Z"/><path class="cls-12" d="M2865.31,70.71h-118c0-1.07,0-2.14,0-3.21H2866.4Z"/><path class="cls-18" d="M2948,522.89q0,63.66,0,127.32A258.26,258.26,0,0,1,2948,522.89Z"/><path class="cls-22" d="M537.09,2599.19l60.3-2.24L658,2599a30.36,30.36,0,0,1-.43,6.17l-120.53-1q-3.39-1.66-2.26-3.32C535.56,2599.74,536.31,2599.19,537.09,2599.19Z"/><path class="cls-10" d="M2947.68,1107.08h-6.29v-79.15l6.29-.06Z"/><path class="cls-15" d="M2866,2576.13h-65.35c0-1.11,0-2.21,0-3.31h65.18Z"/><path class="cls-23" d="M2961.24,630.19c-3.12-22.39-2-44.76.36-67.13q2.8-4.57,5.49.06l.15,67.15-3,0Z"/><path class="cls-24" d="M2967.09,563.12l-2.75,0-2.74-.08c.79-13.46-9.15-28.64,6.38-39.73Q2967.53,543.24,2967.09,563.12Z"/><path class="cls-12" d="M1562.28,71.57H122.9c0-1.06,0-2.11,0-3.16H1563.56Z"/><path class="cls-25" d="M2872.33,1686.73v440.5l-3.36,0V1685.72Z"/><path class="cls-25" d="M2872.49,1451.24v213h-3.35V1451.09Z"/><ellipse class="cls-6" cx="1026.97" cy="2460.14" rx="150.7" ry="2.21"/><path class="cls-26" d="M2713,2477.17c20.07,3,41.55-6.74,60.45,6.72H2572q-3.3-2.23-2.2-4.47c.73-1.5,1.46-2.24,2.2-2.24Z"/><path class="cls-25" d="M2872.81,1040.87V1173.1C2862.37,1129.67,2872.17,1085.66,2872.81,1040.87Z"/><path class="cls-25" d="M2855.78,2408.29V2276l3.36,0v132.54Z"/><path class="cls-25" d="M2572,2477.18v6.71h-59l-.12-6.71Z"/><path class="cls-25" d="M1997.66,2479.84h-37.25C1974.52,2466.22,1985.93,2470.64,1997.66,2479.84Z"/><path class="cls-25" d="M2868.74,573.46c8.29,8.72,5.94,16.54,2.15,26.31C2858.73,591.16,2859.05,583.48,2868.74,573.46Z"/><path class="cls-6" d="M2426.46,2599h438.8l0,3.36H2425.12C2425.56,2601.23,2426,2600.11,2426.46,2599Z"/><path class="cls-6" d="M2036.92,2599h317.92l0,3.36H2035.58C2036,2601.23,2036.48,2600.11,2036.92,2599Z"/><path class="cls-6" d="M2963.37,2503.69V2378.16l2.62-.08v125.54Z"/><path class="cls-27" d="M537.09,2599.19c0,1.66,0,3.31,0,5-22.2-.51-45.09,7.38-66.26-5.51Z"/><path class="cls-28" d="M1840.48,2465.22h37.82c.14.94.27,1.87.41,2.8h-36.82Z"/><rect x="1807.43" y="723.44" width="952.12" height="23.43" rx="11.72"/><path d="M1862,1563.22h840.32c5.85,0,10.6,5.24,10.6,11.71h0c0,6.47-4.75,11.72-10.6,11.72H1862c-5.86,0-10.6-5.25-10.6-11.72h0C1851.43,1568.46,1856.17,1563.22,1862,1563.22Z"/><path d="M1962.76,742.55v65.58c0,5.16-3.63,9.34-8.1,9.34h-7.24c-4.47,0-8.1-4.18-8.1-9.34V742.55c0-5.16,3.63-9.34,8.1-9.34h7.24C1959.13,733.21,1962.76,737.39,1962.76,742.55Z"/><path d="M2293.83,742.55v65.58c0,5.16-3.62,9.34-8.09,9.34h-7.25c-4.47,0-8.09-4.18-8.09-9.34V742.55c0-5.16,3.62-9.34,8.09-9.34h7.25C2290.21,733.21,2293.83,737.39,2293.83,742.55Z"/><path d="M2625.13,742.55v65.58c0,5.16-3.63,9.34-8.1,9.34h-7.24c-4.47,0-8.1-4.18-8.1-9.34V742.55c0-5.16,3.63-9.34,8.1-9.34H2617C2621.5,733.21,2625.13,737.39,2625.13,742.55Z"/><rect x="2114.11" y="1779.4" width="5.86" height="169.24" rx="0.91"/><rect x="2114.11" y="2036.15" width="5.86" height="169.24" rx="0.91"/><rect x="2075.63" y="1719.34" width="82.83" height="31.84" rx="12.14"/><rect x="2075.63" y="1973.63" width="82.83" height="31.84" rx="12.14"/><rect x="2075.63" y="2232.37" width="82.83" height="31.84" rx="12.14"/><rect x="1939.92" y="953.88" width="23.43" height="50.11" rx="6.39"/><rect x="2271.27" y="953.88" width="23.43" height="50.11" rx="6.39"/><rect x="2602.08" y="953.88" width="23.43" height="50.11" rx="6.39"/><rect x="1939.92" y="1139.66" width="23.43" height="50.11" rx="6.39"/><rect x="2602.08" y="1139.66" width="23.43" height="50.11" rx="6.39"/><rect x="1939.92" y="1325.67" width="23.43" height="50.11" rx="6.39"/><rect x="2602.08" y="1325.67" width="23.43" height="50.11" rx="6.39"/><rect class="cls-29" x="1852.64" y="843.61" width="199.64" height="82.65" rx="20.46"/><path class="cls-30" d="M2043.17,870.06c-3.47.35-7.19,4.86-7.19,8.35L2034,908a2.8,2.8,0,0,1-2.8,2.8l-141.46,1.65a14.89,14.89,0,0,0-5.7,1.2l-6.46,2.75H2036.8a5.64,5.64,0,0,0,5.64-5.52l.73-36.35"/><rect class="cls-29" x="2180.3" y="843.61" width="199.64" height="82.65" rx="20.46"/><path class="cls-30" d="M2370.83,870.06c-3.47.35-7.2,4.86-7.2,8.35l-2,29.55a2.79,2.79,0,0,1-2.79,2.8l-141.47,1.65a14.93,14.93,0,0,0-5.7,1.2l-6.46,2.75h159.25a5.64,5.64,0,0,0,5.64-5.52l.73-36.35"/><rect class="cls-29" x="2513.59" y="843.61" width="199.64" height="82.65" rx="20.46"/><path class="cls-30" d="M2704.12,870.06c-3.47.35-7.19,4.86-7.19,8.35l-2,29.55a2.8,2.8,0,0,1-2.8,2.8l-141.46,1.65a14.89,14.89,0,0,0-5.7,1.2l-6.46,2.75h159.24a5.64,5.64,0,0,0,5.64-5.52l.73-36.35"/><rect x="1852.64" y="1028.15" width="199.64" height="82.65" rx="20.46"/><path class="cls-30" d="M2043.17,1054.6c-3.47.35-7.19,4.85-7.19,8.35l-2,29.55a2.8,2.8,0,0,1-2.8,2.8L1889.72,1097a14.89,14.89,0,0,0-5.7,1.2l-6.46,2.75H2036.8a5.64,5.64,0,0,0,5.64-5.53l.73-36.34"/><rect x="1852.64" y="1215.77" width="199.64" height="82.65" rx="20.46"/><path class="cls-30" d="M2043.17,1242.22c-3.47.35-7.19,4.86-7.19,8.35l-2,29.55a2.8,2.8,0,0,1-2.8,2.8l-141.46,1.65a14.89,14.89,0,0,0-5.7,1.2l-6.46,2.75H2036.8a5.64,5.64,0,0,0,5.64-5.53l.73-36.34"/><rect x="1852.64" y="1404.33" width="199.64" height="82.65" rx="20.46"/><path class="cls-30" d="M2043.17,1430.78c-3.47.35-7.19,4.86-7.19,8.35l-2,29.55a2.8,2.8,0,0,1-2.8,2.8l-141.46,1.65a14.89,14.89,0,0,0-5.7,1.2l-6.46,2.75H2036.8a5.64,5.64,0,0,0,5.64-5.53l.73-36.34"/><rect x="2512.83" y="1215.77" width="199.64" height="82.65" rx="20.46"/><path class="cls-30" d="M2703.37,1242.22c-3.48.35-7.2,4.86-7.2,8.35l-2,29.55a2.8,2.8,0,0,1-2.8,2.8l-141.46,1.65a14.89,14.89,0,0,0-5.7,1.2l-6.46,2.75H2697a5.63,5.63,0,0,0,5.63-5.53l.74-36.34"/><rect x="2512.83" y="1404.33" width="199.64" height="82.65" rx="20.46"/><path class="cls-30" d="M2703.37,1430.78c-3.48.35-7.2,4.86-7.2,8.35l-2,29.55a2.8,2.8,0,0,1-2.8,2.8l-141.46,1.65a14.89,14.89,0,0,0-5.7,1.2l-6.46,2.75H2697a5.63,5.63,0,0,0,5.63-5.53l.74-36.34"/><rect x="2180.3" y="1028.15" width="199.64" height="82.65" rx="20.46"/><path class="cls-30" d="M2370.83,1054.6c-3.47.35-7.2,4.85-7.2,8.35l-2,29.55a2.79,2.79,0,0,1-2.79,2.8L2217.37,1097a14.93,14.93,0,0,0-5.7,1.2l-6.46,2.75h159.25a5.64,5.64,0,0,0,5.64-5.53l.73-36.34"/><rect x="2513.59" y="1028.15" width="199.64" height="82.65" rx="20.46"/><path class="cls-30" d="M2704.12,1054.6c-3.47.35-7.19,4.85-7.19,8.35l-2,29.55a2.8,2.8,0,0,1-2.8,2.8L2550.67,1097a14.89,14.89,0,0,0-5.7,1.2l-6.46,2.75h159.24a5.64,5.64,0,0,0,5.64-5.53l.73-36.34"/><circle class="cls-12" cx="2285.3" cy="1352.79" r="163.11"/><circle class="cls-30" cx="2285.3" cy="1352.79" r="134.85"/><circle cx="1945.08" cy="1735.26" r="88.36" transform="translate(-657.31 1883.62) rotate(-45)"/><circle class="cls-30" cx="1945.08" cy="1735.26" r="66.53"/><circle cx="1945.08" cy="1735.26" r="48.96"/><circle cx="1945.08" cy="1989.55" r="88.36" transform="translate(-837.12 1958.1) rotate(-45)"/><circle class="cls-30" cx="1945.08" cy="1989.55" r="66.53"/><circle cx="1945.08" cy="1989.55" r="48.96"/><circle cx="1945.08" cy="2248.29" r="88.36" transform="translate(-1020.08 2033.89) rotate(-45)"/><circle class="cls-30" cx="1945.08" cy="2248.29" r="66.53"/><circle cx="1945.08" cy="2248.29" r="48.96"/><path d="M2843.39,2426.25a36.71,36.71,0,0,1-37,37.1L918.65,2446.41l9.86-5.77,1836.4-27.94a17.32,17.32,0,0,0,17.08-17.1l33.46-2063.24,8-24.29Z"/><path class="cls-31" d="M178.26,127.06l1179.26,18.4a5,5,0,0,1,3.42,8.67h0a5,5,0,0,1-3.41,1.41l-1150,20.21a5.05,5.05,0,0,0-5,5L177.69,2288.4a5,5,0,0,1-5,5h-1.23a5,5,0,0,1-5-5L149.19,159.73a6.07,6.07,0,0,1,.08-.94L151,149.5A27.31,27.31,0,0,1,178.26,127.06Z"/><rect class="cls-32" x="287.48" y="812.39" width="286.59" height="293.16" rx="20.73"/><rect class="cls-33" x="295.16" y="818.95" width="307.93" height="313.95" rx="37.89"/><rect class="cls-32" x="677.73" y="812.39" width="286.59" height="293.16" rx="20.73"/><rect class="cls-33" x="685.41" y="818.95" width="307.93" height="313.95" rx="37.89"/><rect class="cls-32" x="1067.98" y="812.39" width="286.59" height="293.16" rx="20.73"/><rect class="cls-33" x="1075.66" y="818.95" width="307.93" height="313.95" rx="37.89"/><rect class="cls-32" x="1458.23" y="812.39" width="286.59" height="293.16" rx="20.73"/><rect class="cls-33" x="1465.91" y="818.95" width="307.93" height="313.95" rx="37.89"/><rect class="cls-32" x="287.48" y="1215.62" width="286.59" height="293.16" rx="20.73"/><rect class="cls-33" x="295.16" y="1222.19" width="307.93" height="313.95" rx="37.89"/><rect class="cls-32" x="677.73" y="1215.62" width="286.59" height="293.16" rx="20.73"/><rect class="cls-33" x="685.41" y="1222.19" width="307.93" height="313.95" rx="37.89"/><rect class="cls-32" x="1067.98" y="1215.62" width="286.59" height="293.16" rx="20.73"/><rect class="cls-33" x="1075.66" y="1222.19" width="307.93" height="313.95" rx="37.89"/><rect class="cls-32" x="1458.23" y="1215.62" width="286.59" height="293.16" rx="20.73"/><rect class="cls-33" x="1465.91" y="1222.19" width="307.93" height="313.95" rx="37.89"/><rect class="cls-32" x="287.48" y="1618.86" width="286.59" height="293.16" rx="20.73"/><rect class="cls-33" x="295.16" y="1625.42" width="307.93" height="313.95" rx="37.89"/><rect class="cls-32" x="677.73" y="1618.86" width="286.59" height="293.16" rx="20.73"/><rect class="cls-33" x="685.41" y="1625.42" width="307.93" height="313.95" rx="37.89"/><rect class="cls-32" x="1067.98" y="1618.86" width="286.59" height="293.16" rx="20.73"/><rect class="cls-33" x="1075.66" y="1625.42" width="307.93" height="313.95" rx="37.89"/><rect class="cls-32" x="1458.23" y="1618.86" width="286.59" height="293.16" rx="20.73"/><rect class="cls-33" x="1465.91" y="1625.42" width="307.93" height="313.95" rx="37.89"/><rect class="cls-32" x="287.48" y="2022.09" width="286.59" height="293.16" rx="20.73"/><rect class="cls-33" x="295.16" y="2028.65" width="307.93" height="313.95" rx="37.89"/><rect class="cls-32" x="677.73" y="2022.09" width="286.59" height="293.16" rx="20.73"/><rect class="cls-33" x="685.41" y="2028.65" width="307.93" height="313.95" rx="37.89"/><rect class="cls-32" x="1067.98" y="2022.09" width="286.59" height="293.16" rx="20.73"/><rect class="cls-33" x="1075.66" y="2028.65" width="307.93" height="313.95" rx="37.89"/><rect class="cls-32" x="1458.23" y="2022.09" width="286.59" height="293.16" rx="20.73"/><rect class="cls-33" x="1465.91" y="2028.65" width="307.93" height="313.95" rx="37.89"/><rect class="cls-34" x="293.07" y="282.05" width="1213.3" height="368.61" rx="34.41"/><rect class="cls-35" x="342.56" y="328.07" width="1116.47" height="268.28"/></g></svg>